<?xml version="1.0" standalone="no"?><!DOCTYPE svg PUBLIC "-//W3C//DTD SVG 1.1//EN" "http://www.w3.org/Graphics/SVG/1.1/DTD/svg11.dtd"><svg class="icon" width="200px" height="200.00px" viewBox="0 0 1024 1024" version="1.1" xmlns="http://www.w3.org/2000/svg"><path fill="#333333" d="M972.534255 998.406993H625.416305a51.186013 51.186013 0 0 1-51.186013-51.186013V600.10303a51.186013 51.186013 0 0 1 51.186013-51.186014H972.534255a51.186013 51.186013 0 0 1 51.186013 51.186014V947.22098a51.186013 51.186013 0 0 1-51.186013 51.186013z m-169.169774-510.964379a41.895752 41.895752 0 0 1-59.32459 0l-207.661656-207.8664a42.04931 42.04931 0 0 1 0-59.401369L744.039891 12.308445a41.895752 41.895752 0 0 1 59.32459 0l207.661656 207.8664c16.379524 16.405117 16.379524 42.996251 0 59.401369l-207.661656 207.8664zM398.27837 998.406993H51.186013a51.186013 51.186013 0 0 1-51.186013-51.186013V600.10303a51.186013 51.186013 0 0 1 51.186013-51.186014h347.092357a51.186013 51.186013 0 0 1 51.186014 51.186014V947.22098a51.186013 51.186013 0 0 1-51.186014 51.186013z m0-523.863254H51.186013a51.186013 51.186013 0 0 1-51.186013-51.186013V76.265368a51.186013 51.186013 0 0 1 51.186013-51.186013h347.092357a51.186013 51.186013 0 0 1 51.186014 51.186013v347.092358a51.186013 51.186013 0 0 1-51.186014 51.186013z"  /></svg>