<?xml version="1.0" standalone="no"?><!DOCTYPE svg PUBLIC "-//W3C//DTD SVG 1.1//EN" "http://www.w3.org/Graphics/SVG/1.1/DTD/svg11.dtd"><svg class="icon" width="200px" height="200.00px" viewBox="0 0 1024 1024" version="1.1" xmlns="http://www.w3.org/2000/svg"><path fill="#333333" d="M 874.809 732.179 H 302.859 c -16.95 0 -32.85 -6.6 -44.7 -18.6 c -11.85 -12 -18.45 -27.75 -18.3 -44.7 l 2.1 -421.2 c 0 -16.8 -5.85 -28.05 -34.95 -32.7 h -0.149999 l -84 -14.4 c -8.1 -1.35 -13.65 -9.15003 -12.3 -17.25 c 1.35 -8.1 9.15003 -13.65 17.25 -12.3 l 83.85 14.4 c 39.9 6.3 60.15 27.3 60.15 62.4 L 269.71 669.179 c 0 8.84997 3.3 17.1 9.6 23.25 c 6.3 6.3 14.55 9.75 23.4 9.75 h 571.95 c 8.25 0 15 6.75 15 15 s -6.6 15 -14.85 15 Z"  /><path fill="#333333" d="M 832.059 646.079 l -529.65 -1.65 c -16.65 -0.15 -32.25 -6.6 -43.95 -18.45 c -11.7 -11.85 -18 -27.45 -18 -44.1 l 1.65 -311.1 L 841.359 315.479 c 27.15 1.05 48.45 23.1 48.45 50.25 V 588.479 c 0 31.8 -25.95 57.6 -57.75 57.6 Z M 302.709 614.429 l 529.5 1.65 c 15.3 0 27.75 -12.45 27.75 -27.6 V 365.729 c 0 -10.95 -8.7 -19.95 -19.65 -20.25 h -0.6 l -567.45 -42.3 l -1.35 279 c 0 8.55 3.3 16.65 9.29997 22.8 c 5.7 6 13.8 9.45 22.5 9.45 Z"  /><path fill="#333333" d="M 361.06 781.679 m -55.95 0 a 55.95 55.95 0 1 0 111.9 0 a 55.95 55.95 0 1 0 -111.9 0 Z"  /><path fill="#333333" d="M 361.06 852.629 c -39.15 0 -70.95 -31.8 -70.95 -70.95 s 31.8 -70.95 70.95 -70.95 c 39.15 0 70.95 31.8 70.95 70.95 s -31.8 70.95 -70.95 70.95 Z m 0 -111.9 c -22.65 0 -40.95 18.3 -40.95 40.95 s 18.3 40.95 40.95 40.95 s 40.95 -18.3 40.95 -40.95 s -18.3 -40.95 -40.95 -40.95 Z"  /><path fill="#333333" d="M 790.509 781.679 m -55.95 0 a 55.95 55.95 0 1 0 111.9 0 a 55.95 55.95 0 1 0 -111.9 0 Z"  /><path fill="#333333" d="M 790.509 852.629 c -39.15 0 -70.95 -31.8 -70.95 -70.95 s 31.8 -70.95 70.95 -70.95 s 70.95 31.8 70.95 70.95 s -31.8 70.95 -70.95 70.95 Z m 0 -111.9 c -22.65 0 -40.95 18.3 -40.95 40.95 s 18.3 40.95 40.95 40.95 s 40.95 -18.3 40.95 -40.95 s -18.3 -40.95 -40.95 -40.95 Z"  /><path fill="#333333" d="M 700.509 445.829 H 394.81 c -8.25 0 -15 -6.75 -15 -15 s 6.75 -15 15 -15 h 305.7 c 8.25 0 15 6.75 15 15 s -6.75 15 -15 15 Z M 700.509 532.079 H 394.81 c -8.25 0 -15 -6.75 -15 -15 s 6.75 -15 15 -15 h 305.7 c 8.25 0 15 6.75 15 15 s -6.75 15 -15 15 Z"  /></svg>