<?xml version="1.0" standalone="no"?><!DOCTYPE svg PUBLIC "-//W3C//DTD SVG 1.1//EN" "http://www.w3.org/Graphics/SVG/1.1/DTD/svg11.dtd"><svg class="icon" width="200px" height="200.00px" viewBox="0 0 1024 1024" version="1.1" xmlns="http://www.w3.org/2000/svg"><path fill="#333333" d="M343.7568 807.74144c13.14304 0 25.59488 2.42688 37.3504 7.30112 11.76576 4.87936 21.96992 11.6736 30.6176 20.38272 8.64768 8.69888 15.5648 18.97472 20.75136 30.81728 5.19168 11.83744 7.78752 24.37632 7.78752 37.6064 0 13.2352-2.59584 25.76896-7.78752 37.61152-5.18656 11.83744-12.10368 22.11328-20.75136 30.81216-8.64768 8.71424-18.85184 15.67744-30.6176 20.89472-11.75552 5.23264-24.20736 7.8336-37.3504 7.8336-13.83936 0-26.63424-2.60096-38.39488-7.8336-11.76064-5.21728-21.9648-12.18048-30.61248-20.89472-8.64768-8.69888-15.5648-18.97472-20.75136-30.81216-5.19168-11.84256-7.78752-24.37632-7.78752-37.61152 0-13.23008 2.59584-25.76896 7.78752-37.6064 5.18656-11.84256 12.10368-22.1184 20.75136-30.81728 8.64768-8.70912 18.85184-15.50336 30.61248-20.38272 11.76064-4.87424 24.55552-7.30112 38.39488-7.30112z m431.67744 2.08896c13.14816 0 25.76896 2.42688 37.88288 7.31648 12.10368 4.864 22.4768 11.65824 31.12448 20.36736 8.64768 8.69888 15.5648 18.97472 20.75648 30.81728 5.18656 11.83744 7.7824 24.37632 7.7824 37.6064 0 13.2352-2.59584 25.76896-7.7824 37.61152-5.19168 11.83744-12.1088 22.11328-20.75648 30.81216-8.64768 8.71424-19.0208 15.67744-31.12448 20.91008a94.78656 94.78656 0 0 1-37.88288 7.8336c-13.14304 0-25.59488-2.61632-37.3504-7.8336-11.76064-5.23264-21.9648-12.19584-30.6176-20.91008-8.64256-8.69888-15.5648-18.97472-20.75136-30.81216a92.7232 92.7232 0 0 1-7.78752-37.61152c0-13.23008 2.60096-25.76896 7.78752-37.6064 5.18656-11.84256 12.1088-22.1184 20.75136-30.81728 8.6528-8.70912 18.85696-15.50336 30.6176-20.36736 11.75552-4.8896 24.20736-7.31648 37.3504-7.31648z m174.34112-593.39776c19.36384 0 34.41152 2.6112 45.13792 7.84384 10.71616 5.21728 18.3296 11.65312 22.82496 19.31776 4.49536 7.65952 6.57408 15.8464 6.22592 24.56064-0.34816 8.69888-1.55648 16.18944-3.62496 22.45632-2.08384 6.26688-6.5792 19.14368-13.50144 38.66112a5541.9392 5541.9392 0 0 0-22.30272 64.24576 16369.664 16369.664 0 0 1-23.87456 69.45792 3416.32 3416.32 0 0 1-19.19488 54.33856c-8.9856 27.84256-20.23424 47.17568-33.72032 57.97888-13.4912 10.8032-30.26432 16.18944-50.3296 16.18944H312.62208l14.53056 94.01856h524.032c33.21344 0 49.81248 14.2848 49.81248 42.83904 0 13.93152-3.28704 25.94304-9.856 36.04992-6.57408 10.0864-19.54816 15.13472-38.912 15.13472H308.47488c-13.83936 0-25.42592-3.12832-34.7648-9.3952-9.33888-6.26688-17.12128-14.45376-23.3472-24.54528a150.13888 150.13888 0 0 1-15.0528-32.9216c-3.79904-11.83744-6.73792-22.98368-8.81152-33.42848-0.69632-4.17792-2.59584-14.26944-5.7088-30.30528-3.11296-16-6.92224-36.02944-11.4176-60.06272l-15.04256-80.4352a45937.16224 45937.16224 0 0 1-16.60416-89.3184 46366.19264 46366.19264 0 0 0-44.6208-235.0592H55.27552c-10.37312 0-19.02592-2.61632-25.94304-7.8336a67.92704 67.92704 0 0 1-17.11616-18.82112 72.31488 72.31488 0 0 1-9.33888-23.49056c-1.73056-8.35584-2.60096-16.02048-2.60096-22.98368 0-13.93152 4.66944-25.43104 14.00832-34.4832 9.33888-9.05216 21.9648-13.57312 37.87776-13.57312h104.8064c13.83936 0 24.90368 2.08896 33.21344 6.26688 8.29952 4.17792 14.86336 9.3952 19.712 15.66208 4.84352 6.272 8.29952 12.89216 10.37824 19.86048 2.06848 6.9632 3.80416 12.8768 5.18144 17.75104 1.38752 5.57056 2.76992 13.41952 4.15744 23.51104 1.37728 10.10176 2.7648 20.36736 4.15232 30.81216 2.0736 12.53376 4.1472 25.76896 6.22592 39.70048h709.7856z m-77.83424-33.4336H492.14976l136.97024-137.89696c15.91296-16.02048 33.3824-24.20736 52.40832-24.54528 19.0208-0.34304 36.49024 7.49056 52.39808 23.49056l138.01472 138.95168z"  /></svg>