<?xml version="1.0" standalone="no"?><!DOCTYPE svg PUBLIC "-//W3C//DTD SVG 1.1//EN" "http://www.w3.org/Graphics/SVG/1.1/DTD/svg11.dtd"><svg class="icon" width="200px" height="200.00px" viewBox="0 0 1024 1024" version="1.1" xmlns="http://www.w3.org/2000/svg"><path fill="#333333" d="M512 170.667a21.333 21.333 0 0 1 14.08 5.12l2.987 2.56 281.6 203.946V768A42.667 42.667 0 0 1 768 810.667H256A42.667 42.667 0 0 1 213.333 768V382.293l281.6-204.16 2.987-2.56a21.333 21.333 0 0 1 14.08-4.906M512 128a64 64 0 0 0-42.667 15.787l-284.16 206.08a42.667 42.667 0 0 0-14.506 32.213V768A85.333 85.333 0 0 0 256 853.333h512A85.333 85.333 0 0 0 853.333 768V382.08a42.667 42.667 0 0 0-14.506-32.213l-284.16-206.294A64 64 0 0 0 512 128z"  /><path fill="#333333" d="M512 554.667a64 64 0 0 1 64 64v192H448v-192a64 64 0 0 1 64-64M512 512a106.667 106.667 0 0 0-106.667 106.667v234.666h213.334V618.667A106.667 106.667 0 0 0 512 512z"  /></svg>