<?xml version="1.0" standalone="no"?><!DOCTYPE svg PUBLIC "-//W3C//DTD SVG 1.1//EN" "http://www.w3.org/Graphics/SVG/1.1/DTD/svg11.dtd"><svg class="icon" width="200px" height="199.42px" viewBox="0 0 1027 1024" version="1.1" xmlns="http://www.w3.org/2000/svg"><path fill="#333333" d="M763.612 961.987H589.447a31.503 31.503 0 0 1-32.402-32.403V750.469h-99.909v179.115a31.503 31.503 0 0 1-32.402 32.403H253.269a97.388 97.388 0 0 1-97.208-97.208V580.805h-18.452a74.931 74.931 0 0 1-75.606-75.607 73.491 73.491 0 0 1 21.152-52.204l327.627-346.98a141.672 141.672 0 0 1 199.367-5.85 10.53 10.53 0 0 0 5.4 5.4l327.628 347.43a75.156 75.156 0 0 1-54.904 127.81H860.37V864.78a97.298 97.298 0 0 1-96.758 97.208zM622.75 897.18h140.412a33.978 33.978 0 0 0 33.753-33.753V548.402a31.503 31.503 0 0 1 32.403-32.403h60.755a10.53 10.53 0 0 0 9.9-7.2 11.431 11.431 0 0 0-2.7-12.601l-328.977-345.63a75.966 75.966 0 0 0-108.46-2.7 2.925 2.925 0 0 0-2.7 2.7L129.51 496.649a11.16 11.16 0 0 0 0 15.3 10.396 10.396 0 0 0 8.55 2.701h52.205a31.503 31.503 0 0 1 32.403 32.403v316.376a33.978 33.978 0 0 0 33.752 33.753h138.612V741.468a64.805 64.805 0 0 1 64.805-64.805h99.909a64.805 64.805 0 0 1 64.805 64.805l-1.8 155.713z"  /></svg>