<?xml version="1.0" standalone="no"?><!DOCTYPE svg PUBLIC "-//W3C//DTD SVG 1.1//EN" "http://www.w3.org/Graphics/SVG/1.1/DTD/svg11.dtd"><svg class="icon" width="200px" height="200.00px" viewBox="0 0 1024 1024" version="1.1" xmlns="http://www.w3.org/2000/svg"><path fill="#333333" d="M501.8 63.9c125.7 0 227.6 100.2 227.6 223.9S627.5 511.7 501.8 511.7c-125.7 0-227.6-100.2-227.6-223.9 0-123.6 101.9-223.9 227.6-223.9m0 0c125.7 0 227.6 100.2 227.6 223.9S627.5 511.7 501.8 511.7c-125.7 0-227.6-100.2-227.6-223.9 0-123.6 101.9-223.9 227.6-223.9m-85.3 522.5h189.7c162.4 0 294 129.5 294 289.2v18.6c0 63-131.7 65.3-294 65.3H416.5c-162.4 0-294-0.1-294-65.3v-18.6c0-159.8 131.6-289.2 294-289.2M501.8 99.4c51.4 0 99.8 19.7 136.1 55.4 36.2 35.6 56.1 82.8 56.1 133s-19.9 97.5-56.1 133.1c-36.3 35.7-84.7 55.4-136.1 55.4-51.4 0-99.8-19.7-136.1-55.4-36.2-35.6-56.1-82.8-56.1-133.1 0-50.2 19.9-97.5 56.1-133 36.4-35.7 84.7-55.4 136.1-55.4m0-35.5c-125.7 0-227.6 100.2-227.6 223.9s101.9 223.9 227.6 223.9c125.7 0 227.6-100.2 227.6-223.9 0-123.6-101.9-223.9-227.6-223.9M606.2 621.8c35 0 68.9 6.7 100.8 20 30.8 12.8 58.5 31.2 82.2 54.5 48.7 47.9 75.5 111.6 75.5 179.2v18.6c0 1.2-0.2 1.5-0.3 1.7-0.3 0.5-1.7 2.3-5.8 4.8-6.9 4.2-21.1 10.2-50.1 14.8-50.1 8-121.3 8.6-202.3 8.6H416.5c-78.1 0-151.8 0-202.5-7.8-28.9-4.4-43-10.4-49.8-14.5-6.3-3.9-6.3-5.8-6.3-7.6v-18.6c0-67.7 26.8-131.3 75.5-179.2 23.7-23.4 51.4-41.7 82.2-54.5 31.9-13.3 65.8-20 100.8-20h189.8m0-35.4H416.5c-162.4 0-294 129.5-294 289.2v18.6c0 65.2 131.6 65.3 294 65.3h189.7c162.4 0 294-2.4 294-65.3v-18.6c0-159.8-131.6-289.2-294-289.2" /></svg>