<?xml version="1.0" standalone="no"?><!DOCTYPE svg PUBLIC "-//W3C//DTD SVG 1.1//EN" "http://www.w3.org/Graphics/SVG/1.1/DTD/svg11.dtd"><svg class="icon" width="200px" height="200.00px" viewBox="0 0 1024 1024" version="1.1" xmlns="http://www.w3.org/2000/svg"><path fill="#333333" d="M520.1 516.3c-93.8 0-170.2-76.3-170.2-170.2S426.2 176 520.1 176s170.2 76.3 170.2 170.2-76.4 170.1-170.2 170.1z m0-304.3c-74 0-134.2 60.2-134.2 134.2s60.2 134.2 134.2 134.2 134.2-60.2 134.2-134.2S594 212 520.1 212z"  /><path fill="#333333" d="M789.7 772H242.3v-18c0-73.1 28.5-141.8 80.2-193.5 51.7-51.7 120.4-80.2 193.5-80.2s141.8 28.5 193.5 80.2c51.7 51.7 80.2 120.4 80.2 193.5v18zM279 736h474c-9.2-122.7-112-219.7-237-219.7s-227.7 97-237 219.7z"  /></svg>